<svg xmlns="http://www.w3.org/2000/svg" viewBox="0 0 64 64" width="64" height="64">
  <defs>
    <linearGradient id="bg" x1="0" y1="0" x2="1" y2="1">
      <stop offset="0" stop-color="#4f7cf5"/>
      <stop offset=".5" stop-color="#6a5be0"/>
      <stop offset="1" stop-color="#c05fc0"/>
    </linearGradient>
    <linearGradient id="win" x1="0" y1="0" x2="0" y2="1">
      <stop offset="0" stop-color="#ffffff"/>
      <stop offset="1" stop-color="#eef0f5"/>
    </linearGradient>
  </defs>
  <!-- squircle 背景 -->
  <path fill="url(#bg)" d="M32 1.5C13 1.5 1.5 13 1.5 32S13 62.5 32 62.5 62.5 51 62.5 32 51 1.5 32 1.5Z"/>
  <!-- 顶部高光 -->
  <path fill="#ffffff" opacity=".14" d="M32 1.5C13 1.5 1.5 13 1.5 32c0 3 .3 5.8.9 8.5C10 26 24 19 41 21c8 1 15 4.5 20.5 9.5C61 12.5 50 1.5 32 1.5Z"/>
  <!-- 窗口 -->
  <rect x="13" y="17.5" width="38" height="29" rx="5.5" fill="url(#win)"/>
  <!-- 标题栏分隔线 -->
  <path d="M13 26.5h38" stroke="#d3d7e0" stroke-width="1.4"/>
  <!-- 红绿灯 -->
  <circle cx="19.5" cy="22" r="2.5" fill="#ff5f57"/>
  <circle cx="27" cy="22" r="2.5" fill="#febc2e"/>
  <circle cx="34.5" cy="22" r="2.5" fill="#28c840"/>
  <!-- 窗口内容(暗示文档/界面) -->
  <rect x="18" y="31.5" width="14" height="3" rx="1.5" fill="#c7ccd8"/>
  <rect x="18" y="37" width="22" height="3" rx="1.5" fill="#dde1ea"/>
</svg>
